<mxfile host="app.diagrams.net" agent="Mozilla/5.0 (Windows NT 10.0; Win64; x64) AppleWebKit/537.36 (KHTML, like Gecko) Chrome/140.0.0.0 Safari/537.36" version="28.2.7">
  <diagram name="第 1 页" id="J_uNfgs4V-6jgzaJXv4L">
    <mxGraphModel dx="1550" dy="1238" grid="1" gridSize="10" guides="1" tooltips="1" connect="1" arrows="1" fold="1" page="1" pageScale="1" pageWidth="827" pageHeight="1169" math="0" shadow="0">
      <root>
        <mxCell id="0" />
        <mxCell id="1" parent="0" />
        <mxCell id="e__jGCJ7lol30mxqvzW--1" value="应用控制层(Application)" style="html=1;verticalAlign=top;fillColor=#dae8fc;strokeColor=#6c8ebf;fontSize=16;fontStyle=1" vertex="1" parent="1">
          <mxGeometry x="1760" y="690" width="770" height="140" as="geometry" />
        </mxCell>
        <mxCell id="e__jGCJ7lol30mxqvzW--112" value="通用支撑层(Support)" style="html=1;verticalAlign=top;fillColor=#d5e8d4;strokeColor=#82b366;fontSize=16;fontStyle=1" vertex="1" parent="1">
          <mxGeometry x="1660" y="1290" width="660" height="90" as="geometry" />
        </mxCell>
        <mxCell id="e__jGCJ7lol30mxqvzW--113" value="&lt;font style=&quot;font-size: 12px;&quot;&gt;«FuncUnit»&lt;/font&gt;&lt;br style=&quot;font-size: 14px;&quot;&gt;&lt;b style=&quot;font-size: 14px;&quot;&gt;调试打印&lt;/b&gt;" style="html=1;dropTarget=0;fontSize=14;fillColor=#E6D0DE;strokeColor=#36393d;gradientColor=#FFFFFF;gradientDirection=east;" vertex="1" parent="1">
          <mxGeometry x="1675" y="1320" width="110" height="50" as="geometry" />
        </mxCell>
        <mxCell id="e__jGCJ7lol30mxqvzW--114" value="" style="shape=module;jettyWidth=8;jettyHeight=4;fontSize=14;fillColor=#E6D0DE;strokeColor=#36393d;gradientColor=#FFFFFF;gradientDirection=east;" vertex="1" parent="e__jGCJ7lol30mxqvzW--113">
          <mxGeometry x="1" width="20" height="20" relative="1" as="geometry">
            <mxPoint x="-27" y="7" as="offset" />
          </mxGeometry>
        </mxCell>
        <mxCell id="e__jGCJ7lol30mxqvzW--115" value="领域设施层(Domain)" style="html=1;verticalAlign=top;fillColor=#fff2cc;strokeColor=#d6b656;fontSize=16;fontStyle=1" vertex="1" parent="1">
          <mxGeometry x="1660" y="1152.5" width="660" height="90" as="geometry" />
        </mxCell>
        <mxCell id="e__jGCJ7lol30mxqvzW--116" value="&lt;font style=&quot;font-size: 12px;&quot;&gt;«Module»&lt;/font&gt;&lt;br style=&quot;font-size: 14px;&quot;&gt;&lt;b&gt;Digraph&lt;/b&gt;" style="html=1;dropTarget=0;fontSize=14;fillColor=#E6D0DE;strokeColor=#36393d;gradientColor=#FFFFFF;gradientDirection=east;" vertex="1" parent="1">
          <mxGeometry x="1805" y="1320" width="110" height="50" as="geometry" />
        </mxCell>
        <mxCell id="e__jGCJ7lol30mxqvzW--117" value="" style="shape=module;jettyWidth=8;jettyHeight=4;fontSize=14;fillColor=#E6D0DE;strokeColor=#36393d;gradientColor=#FFFFFF;gradientDirection=east;" vertex="1" parent="e__jGCJ7lol30mxqvzW--116">
          <mxGeometry x="1" width="20" height="20" relative="1" as="geometry">
            <mxPoint x="-27" y="7" as="offset" />
          </mxGeometry>
        </mxCell>
        <mxCell id="e__jGCJ7lol30mxqvzW--118" value="业务逻辑层-核心" style="html=1;verticalAlign=top;fillColor=#ffe6cc;strokeColor=#d79b00;fontSize=16;fontStyle=1" vertex="1" parent="1">
          <mxGeometry x="1815" y="850" width="560" height="240" as="geometry" />
        </mxCell>
        <mxCell id="e__jGCJ7lol30mxqvzW--119" value="&lt;font style=&quot;font-size: 12px;&quot;&gt;«Module»&lt;/font&gt;&lt;br style=&quot;font-size: 14px;&quot;&gt;&lt;b&gt;线程池&lt;/b&gt;" style="html=1;dropTarget=0;fontSize=14;fillColor=#E6D0DE;strokeColor=#36393d;gradientColor=#FFFFFF;gradientDirection=east;" vertex="1" parent="1">
          <mxGeometry x="1935" y="1320" width="110" height="50" as="geometry" />
        </mxCell>
        <mxCell id="e__jGCJ7lol30mxqvzW--120" value="" style="shape=module;jettyWidth=8;jettyHeight=4;fontSize=14;fillColor=#E6D0DE;strokeColor=#36393d;gradientColor=#FFFFFF;gradientDirection=east;" vertex="1" parent="e__jGCJ7lol30mxqvzW--119">
          <mxGeometry x="1" width="20" height="20" relative="1" as="geometry">
            <mxPoint x="-27" y="7" as="offset" />
          </mxGeometry>
        </mxCell>
        <mxCell id="e__jGCJ7lol30mxqvzW--121" value="业务逻辑层-后端" style="html=1;verticalAlign=top;fillColor=#ffe6cc;strokeColor=#d79b00;fontSize=16;fontStyle=1" vertex="1" parent="1">
          <mxGeometry x="2385" y="850" width="150" height="240" as="geometry" />
        </mxCell>
        <mxCell id="e__jGCJ7lol30mxqvzW--122" value="&lt;font style=&quot;font-size: 12px;&quot;&gt;«FuncUnit»&lt;/font&gt;&lt;br style=&quot;font-size: 14px;&quot;&gt;&lt;b&gt;耗时统计&lt;/b&gt;" style="html=1;dropTarget=0;fontSize=14;fillColor=#E6D0DE;strokeColor=#36393d;gradientColor=#FFFFFF;gradientDirection=east;" vertex="1" parent="1">
          <mxGeometry x="2065" y="1320" width="110" height="50" as="geometry" />
        </mxCell>
        <mxCell id="e__jGCJ7lol30mxqvzW--123" value="" style="shape=module;jettyWidth=8;jettyHeight=4;fontSize=14;fillColor=#E6D0DE;strokeColor=#36393d;gradientColor=#FFFFFF;gradientDirection=east;" vertex="1" parent="e__jGCJ7lol30mxqvzW--122">
          <mxGeometry x="1" width="20" height="20" relative="1" as="geometry">
            <mxPoint x="-27" y="7" as="offset" />
          </mxGeometry>
        </mxCell>
        <mxCell id="e__jGCJ7lol30mxqvzW--124" value="业务逻辑层-前端" style="html=1;verticalAlign=top;fillColor=#ffe6cc;strokeColor=#d79b00;fontSize=16;fontStyle=1" vertex="1" parent="1">
          <mxGeometry x="1675" y="850" width="130" height="240" as="geometry" />
        </mxCell>
        <mxCell id="e__jGCJ7lol30mxqvzW--125" value="&lt;font style=&quot;font-size: 12px;&quot;&gt;«FuncUnit»&lt;/font&gt;&lt;br style=&quot;font-size: 14px;&quot;&gt;&lt;b&gt;真值表&lt;/b&gt;" style="html=1;dropTarget=0;fontSize=14;fillColor=#E6D0DE;strokeColor=#36393d;gradientColor=#FFFFFF;gradientDirection=east;" vertex="1" parent="1">
          <mxGeometry x="2195" y="1320" width="110" height="50" as="geometry" />
        </mxCell>
        <mxCell id="e__jGCJ7lol30mxqvzW--126" value="" style="shape=module;jettyWidth=8;jettyHeight=4;fontSize=14;fillColor=#E6D0DE;strokeColor=#36393d;gradientColor=#FFFFFF;gradientDirection=east;" vertex="1" parent="e__jGCJ7lol30mxqvzW--125">
          <mxGeometry x="1" width="20" height="20" relative="1" as="geometry">
            <mxPoint x="-27" y="7" as="offset" />
          </mxGeometry>
        </mxCell>
        <mxCell id="e__jGCJ7lol30mxqvzW--127" value="&lt;font style=&quot;font-size: 12px;&quot;&gt;«Module»&lt;/font&gt;&lt;br style=&quot;font-size: 14px;&quot;&gt;&lt;b style=&quot;font-size: 14px;&quot;&gt;网表超图&lt;/b&gt;" style="html=1;dropTarget=0;fontSize=14;fillColor=#E6D0DE;strokeColor=#36393d;gradientColor=#FFFFFF;gradientDirection=east;" vertex="1" parent="1">
          <mxGeometry x="1690" y="1181.5" width="110" height="50" as="geometry" />
        </mxCell>
        <mxCell id="e__jGCJ7lol30mxqvzW--128" value="" style="shape=module;jettyWidth=8;jettyHeight=4;fontSize=14;fillColor=#E6D0DE;strokeColor=#36393d;gradientColor=#FFFFFF;gradientDirection=east;" vertex="1" parent="e__jGCJ7lol30mxqvzW--127">
          <mxGeometry x="1" width="20" height="20" relative="1" as="geometry">
            <mxPoint x="-27" y="7" as="offset" />
          </mxGeometry>
        </mxCell>
        <mxCell id="e__jGCJ7lol30mxqvzW--129" style="rounded=0;orthogonalLoop=1;jettySize=auto;html=1;entryX=0;entryY=0.5;entryDx=0;entryDy=0;entryPerimeter=0;fontSize=14;endArrow=none;endFill=0;" edge="1" parent="1" source="e__jGCJ7lol30mxqvzW--130" target="e__jGCJ7lol30mxqvzW--133">
          <mxGeometry relative="1" as="geometry" />
        </mxCell>
        <mxCell id="e__jGCJ7lol30mxqvzW--130" value="&lt;font style=&quot;font-size: 12px;&quot;&gt;«Service»&lt;/font&gt;&lt;br style=&quot;font-size: 14px;&quot;&gt;&lt;b&gt;逻辑综合&lt;/b&gt;" style="html=1;dropTarget=0;fontSize=14;fillColor=#FFCCFF;strokeColor=#36393d;gradientColor=#FFFFFF;gradientDirection=east;" vertex="1" parent="1">
          <mxGeometry x="1685" y="890" width="110" height="50" as="geometry" />
        </mxCell>
        <mxCell id="e__jGCJ7lol30mxqvzW--131" value="" style="shape=module;jettyWidth=8;jettyHeight=4;fontSize=14;fillColor=#ffcccc;strokeColor=#36393d;gradientColor=#FFFFFF;gradientDirection=east;" vertex="1" parent="e__jGCJ7lol30mxqvzW--130">
          <mxGeometry x="1" width="20" height="20" relative="1" as="geometry">
            <mxPoint x="-27" y="7" as="offset" />
          </mxGeometry>
        </mxCell>
        <mxCell id="e__jGCJ7lol30mxqvzW--132" style="rounded=0;orthogonalLoop=1;jettySize=auto;html=1;exitX=1;exitY=0.5;exitDx=0;exitDy=0;exitPerimeter=0;fontSize=14;endArrow=none;endFill=0;" edge="1" parent="1" source="e__jGCJ7lol30mxqvzW--133" target="e__jGCJ7lol30mxqvzW--134">
          <mxGeometry relative="1" as="geometry" />
        </mxCell>
        <mxCell id="e__jGCJ7lol30mxqvzW--133" value="网表" style="shape=providedRequiredInterface;html=1;verticalLabelPosition=bottom;sketch=0;fontSize=14;fillColor=#FFCCFF;gradientColor=#FFFFFF;gradientDirection=east;fontStyle=1;direction=south;" vertex="1" parent="1">
          <mxGeometry x="1730" y="960" width="20" height="20" as="geometry" />
        </mxCell>
        <mxCell id="e__jGCJ7lol30mxqvzW--134" value="&lt;font style=&quot;font-size: 12px;&quot;&gt;«Module»&lt;/font&gt;&lt;br style=&quot;font-size: 14px;&quot;&gt;&lt;b&gt;网表解析&lt;/b&gt;" style="html=1;dropTarget=0;fontSize=14;fillColor=#ffcccc;strokeColor=#36393d;gradientColor=#FFFFFF;gradientDirection=east;" vertex="1" parent="1">
          <mxGeometry x="1685" y="1016" width="110" height="50" as="geometry" />
        </mxCell>
        <mxCell id="e__jGCJ7lol30mxqvzW--135" value="" style="shape=module;jettyWidth=8;jettyHeight=4;fontSize=14;fillColor=#ffcccc;strokeColor=#36393d;gradientColor=#FFFFFF;gradientDirection=east;" vertex="1" parent="e__jGCJ7lol30mxqvzW--134">
          <mxGeometry x="1" width="20" height="20" relative="1" as="geometry">
            <mxPoint x="-27" y="7" as="offset" />
          </mxGeometry>
        </mxCell>
        <mxCell id="e__jGCJ7lol30mxqvzW--136" value="&lt;font style=&quot;font-size: 12px;&quot;&gt;«Service»&lt;/font&gt;&lt;br style=&quot;font-size: 14px;&quot;&gt;&lt;b&gt;网表分割&lt;/b&gt;" style="html=1;dropTarget=0;fontSize=14;fillColor=#FFCCFF;strokeColor=#36393d;gradientColor=#FFFFFF;gradientDirection=east;" vertex="1" parent="1">
          <mxGeometry x="2035" y="890" width="110" height="50" as="geometry" />
        </mxCell>
        <mxCell id="e__jGCJ7lol30mxqvzW--137" value="" style="shape=module;jettyWidth=8;jettyHeight=4;fontSize=14;fillColor=#ffcccc;strokeColor=#36393d;gradientColor=#FFFFFF;gradientDirection=east;" vertex="1" parent="e__jGCJ7lol30mxqvzW--136">
          <mxGeometry x="1" width="20" height="20" relative="1" as="geometry">
            <mxPoint x="-27" y="7" as="offset" />
          </mxGeometry>
        </mxCell>
        <mxCell id="e__jGCJ7lol30mxqvzW--138" style="edgeStyle=orthogonalEdgeStyle;rounded=0;orthogonalLoop=1;jettySize=auto;html=1;entryX=0;entryY=0.5;entryDx=0;entryDy=0;entryPerimeter=0;fontSize=14;endArrow=none;endFill=0;" edge="1" parent="1" source="e__jGCJ7lol30mxqvzW--136" target="e__jGCJ7lol30mxqvzW--140">
          <mxGeometry relative="1" as="geometry">
            <mxPoint x="1825" y="935" as="sourcePoint" />
          </mxGeometry>
        </mxCell>
        <mxCell id="e__jGCJ7lol30mxqvzW--139" style="edgeStyle=orthogonalEdgeStyle;rounded=0;orthogonalLoop=1;jettySize=auto;html=1;exitX=1;exitY=0.5;exitDx=0;exitDy=0;exitPerimeter=0;fontSize=14;endArrow=none;endFill=0;" edge="1" parent="1" source="e__jGCJ7lol30mxqvzW--140" target="e__jGCJ7lol30mxqvzW--165">
          <mxGeometry relative="1" as="geometry">
            <mxPoint x="2015.0000000000002" y="890" as="targetPoint" />
          </mxGeometry>
        </mxCell>
        <mxCell id="e__jGCJ7lol30mxqvzW--140" value="超图" style="shape=providedRequiredInterface;html=1;verticalLabelPosition=bottom;sketch=0;fontSize=14;fillColor=#FFCCFF;gradientColor=#FFFFFF;gradientDirection=east;fontStyle=1;flipH=1;" vertex="1" parent="1">
          <mxGeometry x="1985" y="905" width="20" height="20" as="geometry" />
        </mxCell>
        <mxCell id="e__jGCJ7lol30mxqvzW--141" value="&amp;lt;&amp;lt;Realization&amp;gt;&amp;gt;" style="endArrow=block;dashed=1;endFill=0;endSize=12;html=1;rounded=0;fontSize=12;strokeColor=#0000FF;fontColor=#0000FF;" edge="1" parent="1" source="e__jGCJ7lol30mxqvzW--134" target="e__jGCJ7lol30mxqvzW--127">
          <mxGeometry width="160" relative="1" as="geometry">
            <mxPoint x="1545" y="1017" as="sourcePoint" />
            <mxPoint x="1825" y="1010" as="targetPoint" />
          </mxGeometry>
        </mxCell>
        <mxCell id="e__jGCJ7lol30mxqvzW--142" value="&lt;font style=&quot;font-size: 12px;&quot;&gt;«Module»&lt;/font&gt;&lt;br style=&quot;font-size: 14px;&quot;&gt;&lt;b&gt;分区布局&lt;/b&gt;" style="html=1;dropTarget=0;fontSize=14;fillColor=#ffcccc;strokeColor=#36393d;gradientColor=#FFFFFF;gradientDirection=east;" vertex="1" parent="1">
          <mxGeometry x="2245" y="890" width="110" height="50" as="geometry" />
        </mxCell>
        <mxCell id="e__jGCJ7lol30mxqvzW--143" value="" style="shape=module;jettyWidth=8;jettyHeight=4;fontSize=14;fillColor=#ffcccc;strokeColor=#36393d;gradientColor=#FFFFFF;gradientDirection=east;" vertex="1" parent="e__jGCJ7lol30mxqvzW--142">
          <mxGeometry x="1" width="20" height="20" relative="1" as="geometry">
            <mxPoint x="-27" y="7" as="offset" />
          </mxGeometry>
        </mxCell>
        <mxCell id="e__jGCJ7lol30mxqvzW--144" value="&amp;lt;&amp;lt;Usage&amp;gt;&amp;gt;" style="rounded=0;orthogonalLoop=1;jettySize=auto;html=1;fontSize=12;endArrow=open;endFill=0;dashed=1;" edge="1" parent="1" source="e__jGCJ7lol30mxqvzW--147" target="e__jGCJ7lol30mxqvzW--127">
          <mxGeometry relative="1" as="geometry" />
        </mxCell>
        <mxCell id="e__jGCJ7lol30mxqvzW--145" style="edgeStyle=none;rounded=0;orthogonalLoop=1;jettySize=auto;html=1;dashed=1;strokeColor=#000000;fontSize=12;fontColor=#000000;endArrow=open;endFill=0;" edge="1" parent="1" source="e__jGCJ7lol30mxqvzW--147" target="e__jGCJ7lol30mxqvzW--142">
          <mxGeometry relative="1" as="geometry" />
        </mxCell>
        <mxCell id="e__jGCJ7lol30mxqvzW--146" style="edgeStyle=none;rounded=1;orthogonalLoop=1;jettySize=auto;html=1;dashed=1;strokeColor=#000000;fontSize=14;fontColor=#000000;endArrow=open;endFill=0;elbow=vertical;" edge="1" parent="1" source="e__jGCJ7lol30mxqvzW--147" target="e__jGCJ7lol30mxqvzW--165">
          <mxGeometry relative="1" as="geometry" />
        </mxCell>
        <mxCell id="e__jGCJ7lol30mxqvzW--147" value="&lt;font style=&quot;font-size: 12px;&quot;&gt;«Module»&lt;/font&gt;&lt;br style=&quot;font-size: 14px;&quot;&gt;&lt;b&gt;调度&lt;/b&gt;" style="html=1;dropTarget=0;fontSize=14;fillColor=#ffcccc;strokeColor=#36393d;gradientColor=#FFFFFF;gradientDirection=east;verticalAlign=top;" vertex="1" parent="1">
          <mxGeometry x="1840" y="961" width="510" height="110" as="geometry" />
        </mxCell>
        <mxCell id="e__jGCJ7lol30mxqvzW--148" value="" style="shape=module;jettyWidth=8;jettyHeight=4;fontSize=14;fillColor=#ffcccc;strokeColor=#36393d;gradientColor=#FFFFFF;gradientDirection=east;" vertex="1" parent="e__jGCJ7lol30mxqvzW--147">
          <mxGeometry x="1" width="20" height="20" relative="1" as="geometry">
            <mxPoint x="-27" y="7" as="offset" />
          </mxGeometry>
        </mxCell>
        <mxCell id="e__jGCJ7lol30mxqvzW--149" style="edgeStyle=orthogonalEdgeStyle;rounded=0;orthogonalLoop=1;jettySize=auto;html=1;entryX=0;entryY=0.5;entryDx=0;entryDy=0;entryPerimeter=0;fontSize=14;endArrow=none;endFill=0;" edge="1" parent="1" source="e__jGCJ7lol30mxqvzW--136" target="e__jGCJ7lol30mxqvzW--151">
          <mxGeometry relative="1" as="geometry">
            <mxPoint x="2195" y="925" as="sourcePoint" />
          </mxGeometry>
        </mxCell>
        <mxCell id="e__jGCJ7lol30mxqvzW--150" style="edgeStyle=orthogonalEdgeStyle;rounded=0;orthogonalLoop=1;jettySize=auto;html=1;exitX=1;exitY=0.5;exitDx=0;exitDy=0;exitPerimeter=0;fontSize=14;endArrow=none;endFill=0;" edge="1" parent="1" source="e__jGCJ7lol30mxqvzW--151" target="e__jGCJ7lol30mxqvzW--142">
          <mxGeometry relative="1" as="geometry">
            <mxPoint x="2225" y="915" as="targetPoint" />
          </mxGeometry>
        </mxCell>
        <mxCell id="e__jGCJ7lol30mxqvzW--151" value="分区" style="shape=providedRequiredInterface;html=1;verticalLabelPosition=bottom;sketch=0;fontSize=14;fillColor=#FFCCFF;gradientColor=#FFFFFF;gradientDirection=east;fontStyle=1" vertex="1" parent="1">
          <mxGeometry x="2185" y="905" width="20" height="20" as="geometry" />
        </mxCell>
        <mxCell id="e__jGCJ7lol30mxqvzW--152" value="&lt;font style=&quot;font-size: 12px;&quot;&gt;«SubModule»&lt;/font&gt;&lt;br style=&quot;font-size: 14px;&quot;&gt;&lt;b&gt;调度图&lt;/b&gt;" style="html=1;dropTarget=0;fontSize=14;fillColor=#ffcccc;strokeColor=#36393d;gradientColor=#FFFFFF;gradientDirection=east;" vertex="1" parent="1">
          <mxGeometry x="1865" y="1007" width="110" height="50" as="geometry" />
        </mxCell>
        <mxCell id="e__jGCJ7lol30mxqvzW--153" value="" style="shape=module;jettyWidth=8;jettyHeight=4;fontSize=14;fillColor=#ffcccc;strokeColor=#36393d;gradientColor=#FFFFFF;gradientDirection=east;" vertex="1" parent="e__jGCJ7lol30mxqvzW--152">
          <mxGeometry x="1" width="20" height="20" relative="1" as="geometry">
            <mxPoint x="-27" y="7" as="offset" />
          </mxGeometry>
        </mxCell>
        <mxCell id="e__jGCJ7lol30mxqvzW--154" value="&amp;lt;&amp;lt;Usage&amp;gt;&amp;gt;" style="edgeStyle=none;rounded=0;orthogonalLoop=1;jettySize=auto;html=1;dashed=1;fontSize=12;endArrow=open;endFill=0;" edge="1" parent="1" source="e__jGCJ7lol30mxqvzW--156" target="e__jGCJ7lol30mxqvzW--167">
          <mxGeometry relative="1" as="geometry" />
        </mxCell>
        <mxCell id="e__jGCJ7lol30mxqvzW--155" style="edgeStyle=none;rounded=0;orthogonalLoop=1;jettySize=auto;html=1;dashed=1;fontSize=14;endArrow=open;endFill=0;" edge="1" parent="1" source="e__jGCJ7lol30mxqvzW--156" target="e__jGCJ7lol30mxqvzW--152">
          <mxGeometry relative="1" as="geometry" />
        </mxCell>
        <mxCell id="e__jGCJ7lol30mxqvzW--156" value="&lt;font style=&quot;font-size: 12px;&quot;&gt;«SubModule»&lt;/font&gt;&lt;br style=&quot;font-size: 14px;&quot;&gt;&lt;b&gt;位置分配&lt;/b&gt;" style="html=1;dropTarget=0;fontSize=14;fillColor=#ffcccc;strokeColor=#36393d;gradientColor=#FFFFFF;gradientDirection=east;" vertex="1" parent="1">
          <mxGeometry x="2045" y="1006.25" width="110" height="50" as="geometry" />
        </mxCell>
        <mxCell id="e__jGCJ7lol30mxqvzW--157" value="" style="shape=module;jettyWidth=8;jettyHeight=4;fontSize=14;fillColor=#ffcccc;strokeColor=#36393d;gradientColor=#FFFFFF;gradientDirection=east;" vertex="1" parent="e__jGCJ7lol30mxqvzW--156">
          <mxGeometry x="1" width="20" height="20" relative="1" as="geometry">
            <mxPoint x="-27" y="7" as="offset" />
          </mxGeometry>
        </mxCell>
        <mxCell id="e__jGCJ7lol30mxqvzW--158" value="&amp;lt;&amp;lt;Usage&amp;gt;&amp;gt;" style="edgeStyle=none;rounded=0;orthogonalLoop=1;jettySize=auto;html=1;dashed=1;fontSize=12;endArrow=open;endFill=0;" edge="1" parent="1" source="e__jGCJ7lol30mxqvzW--160" target="e__jGCJ7lol30mxqvzW--167">
          <mxGeometry relative="1" as="geometry" />
        </mxCell>
        <mxCell id="e__jGCJ7lol30mxqvzW--159" style="edgeStyle=none;rounded=0;orthogonalLoop=1;jettySize=auto;html=1;dashed=1;fontSize=14;endArrow=open;endFill=0;" edge="1" parent="1" source="e__jGCJ7lol30mxqvzW--160" target="e__jGCJ7lol30mxqvzW--156">
          <mxGeometry relative="1" as="geometry" />
        </mxCell>
        <mxCell id="e__jGCJ7lol30mxqvzW--160" value="&lt;font style=&quot;font-size: 12px;&quot;&gt;«SubModule»&lt;/font&gt;&lt;br style=&quot;font-size: 14px;&quot;&gt;&lt;b&gt;路由&lt;/b&gt;&lt;b&gt;布线&lt;/b&gt;" style="html=1;dropTarget=0;fontSize=14;fillColor=#ffcccc;strokeColor=#36393d;gradientColor=#FFFFFF;gradientDirection=east;" vertex="1" parent="1">
          <mxGeometry x="2220" y="1007" width="110" height="50" as="geometry" />
        </mxCell>
        <mxCell id="e__jGCJ7lol30mxqvzW--161" value="" style="shape=module;jettyWidth=8;jettyHeight=4;fontSize=14;fillColor=#ffcccc;strokeColor=#36393d;gradientColor=#FFFFFF;gradientDirection=east;" vertex="1" parent="e__jGCJ7lol30mxqvzW--160">
          <mxGeometry x="1" width="20" height="20" relative="1" as="geometry">
            <mxPoint x="-27" y="7" as="offset" />
          </mxGeometry>
        </mxCell>
        <mxCell id="e__jGCJ7lol30mxqvzW--162" style="edgeStyle=orthogonalEdgeStyle;rounded=0;orthogonalLoop=1;jettySize=auto;html=1;fontSize=14;endArrow=none;endFill=0;" edge="1" parent="1" source="e__jGCJ7lol30mxqvzW--130" target="e__jGCJ7lol30mxqvzW--197">
          <mxGeometry relative="1" as="geometry">
            <mxPoint x="1495" y="915" as="sourcePoint" />
            <mxPoint x="1465" y="915" as="targetPoint" />
          </mxGeometry>
        </mxCell>
        <mxCell id="e__jGCJ7lol30mxqvzW--163" value="&amp;lt;&amp;lt;Usage&amp;gt;&amp;gt;" style="rounded=0;orthogonalLoop=1;jettySize=auto;html=1;dashed=1;fontSize=12;endArrow=open;endFill=0;" edge="1" parent="1" source="e__jGCJ7lol30mxqvzW--165" target="e__jGCJ7lol30mxqvzW--127">
          <mxGeometry relative="1" as="geometry" />
        </mxCell>
        <mxCell id="e__jGCJ7lol30mxqvzW--164" style="edgeStyle=none;rounded=0;orthogonalLoop=1;jettySize=auto;html=1;dashed=1;fontSize=14;endArrow=open;endFill=0;" edge="1" parent="1" source="e__jGCJ7lol30mxqvzW--165" target="e__jGCJ7lol30mxqvzW--134">
          <mxGeometry relative="1" as="geometry" />
        </mxCell>
        <mxCell id="e__jGCJ7lol30mxqvzW--165" value="&lt;font style=&quot;font-size: 12px;&quot;&gt;«Module»&lt;/font&gt;&lt;br style=&quot;font-size: 14px;&quot;&gt;&lt;b&gt;网表优化&lt;/b&gt;" style="html=1;dropTarget=0;fontSize=14;fillColor=#ffcccc;strokeColor=#36393d;gradientColor=#FFFFFF;gradientDirection=east;" vertex="1" parent="1">
          <mxGeometry x="1835" y="890" width="110" height="50" as="geometry" />
        </mxCell>
        <mxCell id="e__jGCJ7lol30mxqvzW--166" value="" style="shape=module;jettyWidth=8;jettyHeight=4;fontSize=14;fillColor=#ffcccc;strokeColor=#36393d;gradientColor=#FFFFFF;gradientDirection=east;" vertex="1" parent="e__jGCJ7lol30mxqvzW--165">
          <mxGeometry x="1" width="20" height="20" relative="1" as="geometry">
            <mxPoint x="-27" y="7" as="offset" />
          </mxGeometry>
        </mxCell>
        <mxCell id="e__jGCJ7lol30mxqvzW--167" value="&lt;font style=&quot;font-size: 12px;&quot;&gt;«Module»&lt;br style=&quot;&quot;&gt;&lt;/font&gt;&lt;b&gt;仿真引擎&lt;/b&gt;" style="html=1;dropTarget=0;fontSize=14;fillColor=#E6D0DE;strokeColor=#36393d;gradientColor=#FFFFFF;gradientDirection=east;" vertex="1" parent="1">
          <mxGeometry x="2170" y="1181.5" width="110" height="50" as="geometry" />
        </mxCell>
        <mxCell id="e__jGCJ7lol30mxqvzW--168" value="" style="shape=module;jettyWidth=8;jettyHeight=4;fontSize=14;fillColor=#E6D0DE;strokeColor=#36393d;gradientColor=#FFFFFF;gradientDirection=east;" vertex="1" parent="e__jGCJ7lol30mxqvzW--167">
          <mxGeometry x="1" width="20" height="20" relative="1" as="geometry">
            <mxPoint x="-27" y="7" as="offset" />
          </mxGeometry>
        </mxCell>
        <mxCell id="e__jGCJ7lol30mxqvzW--169" style="rounded=0;orthogonalLoop=1;jettySize=auto;html=1;dashed=1;fontSize=12;endArrow=open;endFill=0;" edge="1" parent="1" source="e__jGCJ7lol30mxqvzW--121" target="e__jGCJ7lol30mxqvzW--160">
          <mxGeometry relative="1" as="geometry" />
        </mxCell>
        <mxCell id="e__jGCJ7lol30mxqvzW--170" value="&lt;font style=&quot;font-size: 12px;&quot;&gt;«Module»&lt;/font&gt;&lt;br style=&quot;font-size: 14px;&quot;&gt;&lt;b&gt;指令生成&lt;/b&gt;" style="html=1;dropTarget=0;fontSize=14;fillColor=#ffcccc;strokeColor=#36393d;gradientColor=#FFFFFF;gradientDirection=east;" vertex="1" parent="1">
          <mxGeometry x="2405" y="890" width="110" height="50" as="geometry" />
        </mxCell>
        <mxCell id="e__jGCJ7lol30mxqvzW--171" value="" style="shape=module;jettyWidth=8;jettyHeight=4;fontSize=14;fillColor=#ffcccc;strokeColor=#36393d;gradientColor=#FFFFFF;gradientDirection=east;" vertex="1" parent="e__jGCJ7lol30mxqvzW--170">
          <mxGeometry x="1" width="20" height="20" relative="1" as="geometry">
            <mxPoint x="-27" y="7" as="offset" />
          </mxGeometry>
        </mxCell>
        <mxCell id="e__jGCJ7lol30mxqvzW--172" value="&lt;font style=&quot;font-size: 12px;&quot;&gt;«Module»&lt;/font&gt;&lt;br style=&quot;font-size: 14px;&quot;&gt;&lt;b&gt;信号导出&lt;/b&gt;" style="html=1;dropTarget=0;fontSize=14;fillColor=#ffcccc;strokeColor=#36393d;gradientColor=#FFFFFF;gradientDirection=east;" vertex="1" parent="1">
          <mxGeometry x="2405" y="1030.25" width="110" height="50" as="geometry" />
        </mxCell>
        <mxCell id="e__jGCJ7lol30mxqvzW--173" value="" style="shape=module;jettyWidth=8;jettyHeight=4;fontSize=14;fillColor=#ffcccc;strokeColor=#36393d;gradientColor=#FFFFFF;gradientDirection=east;" vertex="1" parent="e__jGCJ7lol30mxqvzW--172">
          <mxGeometry x="1" width="20" height="20" relative="1" as="geometry">
            <mxPoint x="-27" y="7" as="offset" />
          </mxGeometry>
        </mxCell>
        <mxCell id="e__jGCJ7lol30mxqvzW--174" value="&lt;font style=&quot;font-size: 12px;&quot;&gt;«SubSystem»&lt;/font&gt;&lt;br style=&quot;font-size: 14px;&quot;&gt;&lt;b&gt;波形恢复&lt;/b&gt;" style="html=1;dropTarget=0;fontSize=14;fillColor=#CC99FF;strokeColor=#36393d;gradientColor=#FFFFFF;gradientDirection=east;" vertex="1" parent="1">
          <mxGeometry x="2410" y="1174" width="110" height="50" as="geometry" />
        </mxCell>
        <mxCell id="e__jGCJ7lol30mxqvzW--175" value="" style="shape=module;jettyWidth=8;jettyHeight=4;fontSize=14;fillColor=#CC99FF;strokeColor=#36393d;gradientColor=#FFFFFF;gradientDirection=east;" vertex="1" parent="e__jGCJ7lol30mxqvzW--174">
          <mxGeometry x="1" width="20" height="20" relative="1" as="geometry">
            <mxPoint x="-27" y="7" as="offset" />
          </mxGeometry>
        </mxCell>
        <mxCell id="e__jGCJ7lol30mxqvzW--176" style="edgeStyle=orthogonalEdgeStyle;rounded=0;orthogonalLoop=1;jettySize=auto;html=1;fontSize=14;endArrow=none;endFill=0;" edge="1" parent="1" source="e__jGCJ7lol30mxqvzW--170" target="e__jGCJ7lol30mxqvzW--188">
          <mxGeometry relative="1" as="geometry">
            <mxPoint x="2615" y="1015" as="sourcePoint" />
            <mxPoint x="2585" y="1015" as="targetPoint" />
          </mxGeometry>
        </mxCell>
        <mxCell id="e__jGCJ7lol30mxqvzW--177" style="edgeStyle=orthogonalEdgeStyle;rounded=0;orthogonalLoop=1;jettySize=auto;html=1;entryX=0;entryY=0.5;entryDx=0;entryDy=0;entryPerimeter=0;fontSize=14;endArrow=none;endFill=0;" edge="1" parent="1" source="e__jGCJ7lol30mxqvzW--172" target="e__jGCJ7lol30mxqvzW--179">
          <mxGeometry relative="1" as="geometry">
            <mxPoint x="2535" y="1311" as="sourcePoint" />
          </mxGeometry>
        </mxCell>
        <mxCell id="e__jGCJ7lol30mxqvzW--178" style="edgeStyle=orthogonalEdgeStyle;rounded=0;orthogonalLoop=1;jettySize=auto;html=1;exitX=1;exitY=0.5;exitDx=0;exitDy=0;exitPerimeter=0;fontSize=14;endArrow=none;endFill=0;" edge="1" parent="1" source="e__jGCJ7lol30mxqvzW--179" target="e__jGCJ7lol30mxqvzW--174">
          <mxGeometry relative="1" as="geometry">
            <mxPoint x="2635" y="1220" as="targetPoint" />
          </mxGeometry>
        </mxCell>
        <mxCell id="e__jGCJ7lol30mxqvzW--179" value="信号映射表" style="shape=providedRequiredInterface;html=1;verticalLabelPosition=bottom;sketch=0;fontSize=14;fillColor=#FFCCFF;gradientColor=#FFFFFF;gradientDirection=east;fontStyle=1" vertex="1" parent="1">
          <mxGeometry x="2565" y="1046" width="20" height="20" as="geometry" />
        </mxCell>
        <mxCell id="e__jGCJ7lol30mxqvzW--180" style="edgeStyle=orthogonalEdgeStyle;rounded=0;orthogonalLoop=1;jettySize=auto;html=1;fontSize=14;endArrow=none;endFill=0;" edge="1" parent="1" source="e__jGCJ7lol30mxqvzW--174" target="e__jGCJ7lol30mxqvzW--191">
          <mxGeometry relative="1" as="geometry">
            <mxPoint x="2740" y="1078" as="sourcePoint" />
            <mxPoint x="2810" y="1078" as="targetPoint" />
          </mxGeometry>
        </mxCell>
        <mxCell id="e__jGCJ7lol30mxqvzW--181" value="&amp;lt;&amp;lt;Usage&amp;gt;&amp;gt;" style="edgeStyle=none;rounded=0;orthogonalLoop=1;jettySize=auto;html=1;dashed=1;fontSize=12;endArrow=open;endFill=0;exitX=0.301;exitY=1.004;exitDx=0;exitDy=0;exitPerimeter=0;" edge="1" parent="1" source="e__jGCJ7lol30mxqvzW--121" target="e__jGCJ7lol30mxqvzW--167">
          <mxGeometry relative="1" as="geometry">
            <mxPoint x="2505.1184834123223" y="1050" as="sourcePoint" />
            <mxPoint x="2344.8815165876777" y="1210.9999999999998" as="targetPoint" />
          </mxGeometry>
        </mxCell>
        <mxCell id="e__jGCJ7lol30mxqvzW--182" style="edgeStyle=orthogonalEdgeStyle;rounded=0;orthogonalLoop=1;jettySize=auto;html=1;fontSize=14;endArrow=none;endFill=0;" edge="1" parent="1" source="e__jGCJ7lol30mxqvzW--174" target="e__jGCJ7lol30mxqvzW--194">
          <mxGeometry relative="1" as="geometry">
            <mxPoint x="2270" y="1268" as="sourcePoint" />
            <mxPoint x="2560" y="1147" as="targetPoint" />
          </mxGeometry>
        </mxCell>
        <mxCell id="e__jGCJ7lol30mxqvzW--183" style="edgeStyle=orthogonalEdgeStyle;rounded=0;orthogonalLoop=1;jettySize=auto;html=1;fontSize=14;endArrow=none;endFill=0;" edge="1" parent="1" source="e__jGCJ7lol30mxqvzW--211" target="e__jGCJ7lol30mxqvzW--200">
          <mxGeometry relative="1" as="geometry">
            <mxPoint x="1765" y="630.0000000000002" as="sourcePoint" />
            <mxPoint x="1735" y="630" as="targetPoint" />
          </mxGeometry>
        </mxCell>
        <mxCell id="e__jGCJ7lol30mxqvzW--184" value="&amp;lt;&amp;lt;Usage&amp;gt;&amp;gt;" style="rounded=0;orthogonalLoop=1;jettySize=auto;html=1;fontSize=12;endArrow=open;endFill=0;dashed=1;" edge="1" parent="1" source="e__jGCJ7lol30mxqvzW--152" target="e__jGCJ7lol30mxqvzW--116">
          <mxGeometry relative="1" as="geometry">
            <mxPoint x="2070" y="1050" as="sourcePoint" />
            <mxPoint x="2070" y="1210.9999999999998" as="targetPoint" />
          </mxGeometry>
        </mxCell>
        <mxCell id="e__jGCJ7lol30mxqvzW--185" value="&amp;lt;&amp;lt;Usage&amp;gt;&amp;gt;" style="rounded=0;orthogonalLoop=1;jettySize=auto;html=1;fontSize=12;endArrow=open;endFill=0;dashed=1;" edge="1" parent="1" source="e__jGCJ7lol30mxqvzW--142" target="e__jGCJ7lol30mxqvzW--119">
          <mxGeometry relative="1" as="geometry">
            <mxPoint x="2070" y="1260.9999999999998" as="sourcePoint" />
            <mxPoint x="2070" y="1350" as="targetPoint" />
          </mxGeometry>
        </mxCell>
        <mxCell id="e__jGCJ7lol30mxqvzW--186" value="&amp;lt;&amp;lt;Usage&amp;gt;&amp;gt;" style="rounded=0;orthogonalLoop=1;jettySize=auto;html=1;fontSize=12;endArrow=open;endFill=0;dashed=1;" edge="1" parent="1" source="e__jGCJ7lol30mxqvzW--165" target="e__jGCJ7lol30mxqvzW--125">
          <mxGeometry relative="1" as="geometry">
            <mxPoint x="2015" y="1259.635135135135" as="sourcePoint" />
            <mxPoint x="1755" y="1371.364864864865" as="targetPoint" />
          </mxGeometry>
        </mxCell>
        <mxCell id="e__jGCJ7lol30mxqvzW--187" value="" style="group" vertex="1" connectable="0" parent="1">
          <mxGeometry x="2545" y="905" width="60" height="50" as="geometry" />
        </mxCell>
        <mxCell id="e__jGCJ7lol30mxqvzW--188" value="" style="ellipse;whiteSpace=wrap;html=1;aspect=fixed;fontSize=12;fillColor=#FFCCFF;gradientColor=#FFFFFF;gradientDirection=east;" vertex="1" parent="e__jGCJ7lol30mxqvzW--187">
          <mxGeometry x="20" width="20" height="20" as="geometry" />
        </mxCell>
        <mxCell id="e__jGCJ7lol30mxqvzW--189" value="指令bin" style="text;html=1;strokeColor=none;fillColor=none;align=center;verticalAlign=middle;whiteSpace=wrap;rounded=0;fontSize=14;fontStyle=1" vertex="1" parent="e__jGCJ7lol30mxqvzW--187">
          <mxGeometry y="20" width="60" height="30" as="geometry" />
        </mxCell>
        <mxCell id="e__jGCJ7lol30mxqvzW--190" value="" style="group" vertex="1" connectable="0" parent="1">
          <mxGeometry x="2550" y="1189" width="60" height="50" as="geometry" />
        </mxCell>
        <mxCell id="e__jGCJ7lol30mxqvzW--191" value="" style="ellipse;whiteSpace=wrap;html=1;aspect=fixed;fontSize=12;fillColor=#FFCCFF;gradientColor=#FFFFFF;gradientDirection=east;" vertex="1" parent="e__jGCJ7lol30mxqvzW--190">
          <mxGeometry x="20" width="20" height="20" as="geometry" />
        </mxCell>
        <mxCell id="e__jGCJ7lol30mxqvzW--192" value="波形文件" style="text;html=1;strokeColor=none;fillColor=none;align=center;verticalAlign=middle;whiteSpace=wrap;rounded=0;fontSize=14;fontStyle=1" vertex="1" parent="e__jGCJ7lol30mxqvzW--190">
          <mxGeometry y="20" width="60" height="30" as="geometry" />
        </mxCell>
        <mxCell id="e__jGCJ7lol30mxqvzW--193" value="" style="group" vertex="1" connectable="0" parent="1">
          <mxGeometry x="2330" y="1189" width="60" height="50" as="geometry" />
        </mxCell>
        <mxCell id="e__jGCJ7lol30mxqvzW--194" value="" style="ellipse;whiteSpace=wrap;html=1;aspect=fixed;fontSize=12;fillColor=#FFCCFF;gradientColor=#FFFFFF;gradientDirection=east;" vertex="1" parent="e__jGCJ7lol30mxqvzW--193">
          <mxGeometry x="20" width="20" height="20" as="geometry" />
        </mxCell>
        <mxCell id="e__jGCJ7lol30mxqvzW--195" value="波形数据" style="text;html=1;strokeColor=none;fillColor=none;align=center;verticalAlign=middle;whiteSpace=wrap;rounded=0;fontSize=14;fontStyle=1" vertex="1" parent="e__jGCJ7lol30mxqvzW--193">
          <mxGeometry y="20" width="60" height="30" as="geometry" />
        </mxCell>
        <mxCell id="e__jGCJ7lol30mxqvzW--196" value="" style="group" vertex="1" connectable="0" parent="1">
          <mxGeometry x="1610" y="905" width="60" height="50" as="geometry" />
        </mxCell>
        <mxCell id="e__jGCJ7lol30mxqvzW--197" value="" style="ellipse;whiteSpace=wrap;html=1;aspect=fixed;fontSize=12;fillColor=#FFCCFF;gradientColor=#FFFFFF;gradientDirection=east;" vertex="1" parent="e__jGCJ7lol30mxqvzW--196">
          <mxGeometry x="20" width="20" height="20" as="geometry" />
        </mxCell>
        <mxCell id="e__jGCJ7lol30mxqvzW--198" value="RTL代码" style="text;html=1;strokeColor=none;fillColor=none;align=center;verticalAlign=middle;whiteSpace=wrap;rounded=0;fontSize=14;fontStyle=1" vertex="1" parent="e__jGCJ7lol30mxqvzW--196">
          <mxGeometry y="20" width="60" height="30" as="geometry" />
        </mxCell>
        <mxCell id="e__jGCJ7lol30mxqvzW--199" value="" style="group" vertex="1" connectable="0" parent="1">
          <mxGeometry x="1695" y="750" width="60" height="50" as="geometry" />
        </mxCell>
        <mxCell id="e__jGCJ7lol30mxqvzW--200" value="" style="ellipse;whiteSpace=wrap;html=1;aspect=fixed;fontSize=12;fillColor=#FFCCFF;gradientColor=#FFFFFF;gradientDirection=east;" vertex="1" parent="e__jGCJ7lol30mxqvzW--199">
          <mxGeometry x="20" width="20" height="20" as="geometry" />
        </mxCell>
        <mxCell id="e__jGCJ7lol30mxqvzW--201" value="编译配置" style="text;html=1;strokeColor=none;fillColor=none;align=center;verticalAlign=middle;whiteSpace=wrap;rounded=0;fontSize=14;fontStyle=1" vertex="1" parent="e__jGCJ7lol30mxqvzW--199">
          <mxGeometry y="20" width="60" height="30" as="geometry" />
        </mxCell>
        <mxCell id="e__jGCJ7lol30mxqvzW--202" value="&lt;font style=&quot;font-size: 12px;&quot;&gt;«Module»&lt;/font&gt;&lt;br style=&quot;font-size: 14px;&quot;&gt;&lt;b&gt;顶层互连&lt;/b&gt;" style="html=1;dropTarget=0;fontSize=14;fillColor=#ffcccc;strokeColor=#36393d;gradientColor=#FFFFFF;gradientDirection=east;" vertex="1" parent="1">
          <mxGeometry x="2405" y="960" width="110" height="50" as="geometry" />
        </mxCell>
        <mxCell id="e__jGCJ7lol30mxqvzW--203" value="" style="shape=module;jettyWidth=8;jettyHeight=4;fontSize=14;fillColor=#ffcccc;strokeColor=#36393d;gradientColor=#FFFFFF;gradientDirection=east;" vertex="1" parent="e__jGCJ7lol30mxqvzW--202">
          <mxGeometry x="1" width="20" height="20" relative="1" as="geometry">
            <mxPoint x="-27" y="7" as="offset" />
          </mxGeometry>
        </mxCell>
        <mxCell id="e__jGCJ7lol30mxqvzW--204" style="edgeStyle=orthogonalEdgeStyle;rounded=0;orthogonalLoop=1;jettySize=auto;html=1;fontSize=14;endArrow=none;endFill=0;" edge="1" parent="1" source="e__jGCJ7lol30mxqvzW--202" target="e__jGCJ7lol30mxqvzW--205">
          <mxGeometry relative="1" as="geometry">
            <mxPoint x="2525" y="925" as="sourcePoint" />
            <mxPoint x="2575" y="925" as="targetPoint" />
          </mxGeometry>
        </mxCell>
        <mxCell id="e__jGCJ7lol30mxqvzW--205" value="" style="ellipse;whiteSpace=wrap;html=1;aspect=fixed;fontSize=12;fillColor=#FFCCFF;gradientColor=#FFFFFF;gradientDirection=east;" vertex="1" parent="1">
          <mxGeometry x="2565" y="975" width="20" height="20" as="geometry" />
        </mxCell>
        <mxCell id="e__jGCJ7lol30mxqvzW--206" value="顶层IO" style="text;html=1;strokeColor=none;fillColor=none;align=center;verticalAlign=middle;whiteSpace=wrap;rounded=0;fontSize=14;fontStyle=1" vertex="1" parent="1">
          <mxGeometry x="2545" y="995" width="60" height="30" as="geometry" />
        </mxCell>
        <mxCell id="e__jGCJ7lol30mxqvzW--207" value="&amp;lt;&amp;lt;Usage&amp;gt;&amp;gt;" style="rounded=0;orthogonalLoop=1;jettySize=auto;html=1;fontSize=12;endArrow=open;endFill=0;dashed=1;" edge="1" parent="1" source="e__jGCJ7lol30mxqvzW--147" target="e__jGCJ7lol30mxqvzW--119">
          <mxGeometry relative="1" as="geometry">
            <mxPoint x="2284.468085106383" y="950" as="sourcePoint" />
            <mxPoint x="1855.531914893617" y="1370" as="targetPoint" />
          </mxGeometry>
        </mxCell>
        <mxCell id="e__jGCJ7lol30mxqvzW--208" style="edgeStyle=none;rounded=1;orthogonalLoop=1;jettySize=auto;html=1;dashed=1;strokeColor=#000000;fontSize=14;fontColor=#000000;endArrow=open;endFill=0;elbow=vertical;" edge="1" parent="1" source="e__jGCJ7lol30mxqvzW--209" target="e__jGCJ7lol30mxqvzW--118">
          <mxGeometry relative="1" as="geometry" />
        </mxCell>
        <mxCell id="e__jGCJ7lol30mxqvzW--209" value="&lt;font style=&quot;font-size: 12px;&quot;&gt;«Module»&lt;/font&gt;&lt;br style=&quot;font-size: 14px;&quot;&gt;&lt;b&gt;流程控制&lt;/b&gt;" style="html=1;dropTarget=0;fontSize=14;fillColor=#ffcccc;strokeColor=#36393d;gradientColor=#FFFFFF;gradientDirection=east;" vertex="1" parent="1">
          <mxGeometry x="2065" y="750" width="110" height="50" as="geometry" />
        </mxCell>
        <mxCell id="e__jGCJ7lol30mxqvzW--210" value="" style="shape=module;jettyWidth=8;jettyHeight=4;fontSize=14;fillColor=#ffcccc;strokeColor=#36393d;gradientColor=#FFFFFF;gradientDirection=east;" vertex="1" parent="e__jGCJ7lol30mxqvzW--209">
          <mxGeometry x="1" width="20" height="20" relative="1" as="geometry">
            <mxPoint x="-27" y="7" as="offset" />
          </mxGeometry>
        </mxCell>
        <mxCell id="e__jGCJ7lol30mxqvzW--211" value="&lt;font style=&quot;font-size: 12px;&quot;&gt;«Module»&lt;/font&gt;&lt;br style=&quot;font-size: 14px;&quot;&gt;&lt;b&gt;配置解析&lt;/b&gt;" style="html=1;dropTarget=0;fontSize=14;fillColor=#ffcccc;strokeColor=#36393d;gradientColor=#FFFFFF;gradientDirection=east;verticalAlign=top;" vertex="1" parent="1">
          <mxGeometry x="1785" y="707.5" width="130" height="105" as="geometry" />
        </mxCell>
        <mxCell id="e__jGCJ7lol30mxqvzW--212" value="" style="shape=module;jettyWidth=8;jettyHeight=4;fontSize=14;fillColor=#ffcccc;strokeColor=#36393d;gradientColor=#FFFFFF;gradientDirection=east;" vertex="1" parent="e__jGCJ7lol30mxqvzW--211">
          <mxGeometry x="1" width="20" height="20" relative="1" as="geometry">
            <mxPoint x="-27" y="7" as="offset" />
          </mxGeometry>
        </mxCell>
        <mxCell id="e__jGCJ7lol30mxqvzW--213" value="&lt;font style=&quot;font-size: 12px;&quot;&gt;«Module»&lt;/font&gt;&lt;br style=&quot;font-size: 14px;&quot;&gt;&lt;b style=&quot;font-size: 14px;&quot;&gt;编译选项&lt;/b&gt;" style="html=1;dropTarget=0;fontSize=14;fillColor=#E6D0DE;strokeColor=#36393d;gradientColor=#FFFFFF;gradientDirection=east;" vertex="1" parent="1">
          <mxGeometry x="1795" y="750" width="110" height="50" as="geometry" />
        </mxCell>
        <mxCell id="e__jGCJ7lol30mxqvzW--214" value="" style="shape=module;jettyWidth=8;jettyHeight=4;fontSize=14;fillColor=#E6D0DE;strokeColor=#36393d;gradientColor=#FFFFFF;gradientDirection=east;" vertex="1" parent="e__jGCJ7lol30mxqvzW--213">
          <mxGeometry x="1" width="20" height="20" relative="1" as="geometry">
            <mxPoint x="-27" y="7" as="offset" />
          </mxGeometry>
        </mxCell>
        <mxCell id="e__jGCJ7lol30mxqvzW--215" value="&amp;lt;&amp;lt;Usage&amp;gt;&amp;gt;" style="rounded=0;orthogonalLoop=1;jettySize=auto;html=1;dashed=1;fontSize=12;endArrow=open;endFill=0;" edge="1" parent="1" source="e__jGCJ7lol30mxqvzW--124" target="e__jGCJ7lol30mxqvzW--213">
          <mxGeometry relative="1" as="geometry">
            <mxPoint x="1873.6956521739132" y="950" as="sourcePoint" />
            <mxPoint x="1756.304347826087" y="1130.0000000000002" as="targetPoint" />
          </mxGeometry>
        </mxCell>
        <mxCell id="e__jGCJ7lol30mxqvzW--216" style="edgeStyle=none;rounded=1;orthogonalLoop=1;jettySize=auto;html=1;dashed=1;strokeColor=#000000;fontSize=14;fontColor=#000000;endArrow=open;endFill=0;elbow=vertical;" edge="1" parent="1" source="e__jGCJ7lol30mxqvzW--217" target="e__jGCJ7lol30mxqvzW--121">
          <mxGeometry relative="1" as="geometry" />
        </mxCell>
        <mxCell id="e__jGCJ7lol30mxqvzW--217" value="&lt;font style=&quot;font-size: 12px;&quot;&gt;«Module»&lt;/font&gt;&lt;br style=&quot;font-size: 14px;&quot;&gt;&lt;b&gt;结果输出&lt;/b&gt;" style="html=1;dropTarget=0;fontSize=14;fillColor=#ffcccc;strokeColor=#36393d;gradientColor=#FFFFFF;gradientDirection=east;" vertex="1" parent="1">
          <mxGeometry x="2405" y="750" width="110" height="50" as="geometry" />
        </mxCell>
        <mxCell id="e__jGCJ7lol30mxqvzW--218" value="" style="shape=module;jettyWidth=8;jettyHeight=4;fontSize=14;fillColor=#ffcccc;strokeColor=#36393d;gradientColor=#FFFFFF;gradientDirection=east;" vertex="1" parent="e__jGCJ7lol30mxqvzW--217">
          <mxGeometry x="1" width="20" height="20" relative="1" as="geometry">
            <mxPoint x="-27" y="7" as="offset" />
          </mxGeometry>
        </mxCell>
        <mxCell id="e__jGCJ7lol30mxqvzW--219" value="&amp;lt;&amp;lt;Usage&amp;gt;&amp;gt;" style="rounded=0;orthogonalLoop=1;jettySize=auto;html=1;dashed=1;fontSize=12;endArrow=open;endFill=0;" edge="1" parent="1" source="e__jGCJ7lol30mxqvzW--118" target="e__jGCJ7lol30mxqvzW--213">
          <mxGeometry relative="1" as="geometry">
            <mxPoint x="1815" y="864.7727272727275" as="sourcePoint" />
            <mxPoint x="1845.8974358974358" y="810" as="targetPoint" />
          </mxGeometry>
        </mxCell>
        <mxCell id="e__jGCJ7lol30mxqvzW--220" value="&amp;lt;&amp;lt;Usage&amp;gt;&amp;gt;" style="rounded=0;orthogonalLoop=1;jettySize=auto;html=1;dashed=1;fontSize=12;endArrow=open;endFill=0;exitX=0.25;exitY=0;exitDx=0;exitDy=0;" edge="1" parent="1" source="e__jGCJ7lol30mxqvzW--121" target="e__jGCJ7lol30mxqvzW--213">
          <mxGeometry relative="1" as="geometry">
            <mxPoint x="1954.2307692307693" y="860" as="sourcePoint" />
            <mxPoint x="1891.4102564102564" y="810" as="targetPoint" />
          </mxGeometry>
        </mxCell>
      </root>
    </mxGraphModel>
  </diagram>
</mxfile>
